<svg xmlns="http://www.w3.org/2000/svg" viewBox="0 0 100 140">
  <!-- Upper bout -->
  <ellipse cx="50" cy="30" rx="22" ry="24" fill="#FF9B73" opacity="0.95"/>

  <!-- C-bout (waist) -->
  <ellipse cx="50" cy="55" rx="16" ry="14" fill="#FF9B73" opacity="0.92"/>

  <!-- Lower bout -->
  <ellipse cx="50" cy="85" rx="26" ry="28" fill="#FF9B73" opacity="0.95"/>

  <!-- Strings -->
  <line x1="45" y1="15" x2="45" y2="115" stroke="#8B4513" stroke-width="0.5" opacity="0.4"/>
  <line x1="48" y1="15" x2="48" y2="115" stroke="#8B4513" stroke-width="0.5" opacity="0.4"/>
  <line x1="52" y1="15" x2="52" y2="115" stroke="#8B4513" stroke-width="0.5" opacity="0.4"/>
  <line x1="55" y1="15" x2="55" y2="115" stroke="#8B4513" stroke-width="0.5" opacity="0.4"/>

  <!-- Bridge -->
  <rect x="43" y="82" width="14" height="3" rx="1" fill="#8B4513" opacity="0.6"/>

  <!-- Left eye white -->
  <ellipse cx="40" cy="26" rx="6" ry="7" fill="white"/>

  <!-- Right eye white -->
  <ellipse cx="60" cy="26" rx="6" ry="7" fill="white"/>

  <!-- Left pupil -->
  <circle cx="40" cy="27" r="3" fill="#1a1a1a"/>
  <circle cx="39" cy="25" r="1.2" fill="white" opacity="0.8"/>

  <!-- Right pupil -->
  <circle cx="60" cy="27" r="3" fill="#1a1a1a"/>
  <circle cx="59" cy="25" r="1.2" fill="white" opacity="0.8"/>

  <!-- Smile -->
  <path d="M 42 36 Q 50 42 58 36" fill="none" stroke="white" stroke-width="2" stroke-linecap="round"/>

  <!-- F-holes (decorative) -->
  <ellipse cx="40" cy="50" rx="2.5" ry="6" fill="none" stroke="#8B4513" stroke-width="1" opacity="0.3" transform="rotate(-5 40 50)"/>
  <ellipse cx="60" cy="50" rx="2.5" ry="6" fill="none" stroke="#8B4513" stroke-width="1" opacity="0.3" transform="rotate(5 60 50)"/>

  <!-- Blush left -->
  <ellipse cx="32" cy="30" rx="4" ry="3" fill="white" opacity="0.3"/>

  <!-- Blush right -->
  <ellipse cx="68" cy="30" rx="4" ry="3" fill="white" opacity="0.3"/>
</svg>
